<svg xmlns="http://www.w3.org/2000/svg" width="200" height="200" viewBox="0 0 200 200" version="1.1"><path d="M 44.124 12.618 C 44.332 13.103, 46.577 16.650, 49.114 20.500 C 56.410 31.572, 56.793 33.324, 54.308 44.259 C 53.153 49.341, 50.374 57.750, 48.133 62.945 C 45.891 68.140, 44.157 72.476, 44.279 72.581 C 44.400 72.686, 49.450 75.246, 55.500 78.270 C 69.236 85.137, 77.703 91.444, 82.301 98.236 C 85.804 103.410, 89 112.180, 89 116.619 C 89 118.638, 89.367 118.815, 92.500 118.306 C 97.053 117.567, 96.951 118.539, 92.250 120.684 C 90.188 121.625, 88.162 122.568, 87.750 122.781 C 87.338 122.993, 87 122.296, 87 121.233 C 87 116.023, 84.798 112.927, 79.017 110.009 C 72.839 106.890, 72.037 105.550, 72.014 98.300 C 72.001 94.553, 71.512 93.689, 67.480 90.300 C 62.585 86.184, 50.894 78.773, 50.274 79.393 C 50.064 79.603, 50.815 81.288, 51.942 83.137 C 56.581 90.746, 52.478 98.268, 40.841 103.491 L 34.659 106.265 37.579 107.749 C 41.529 109.756, 46.832 114.852, 48.715 118.451 C 49.564 120.074, 50.238 123.748, 50.213 126.616 L 50.166 131.829 53.551 130.414 C 55.413 129.636, 57.866 129, 59.003 129 C 62.386 129, 59.759 132.462, 53.997 135.598 C 50.471 137.517, 48.997 138.933, 48.991 140.409 C 48.987 141.559, 48.730 144.975, 48.420 148 L 47.858 153.500 50.679 148.528 C 53.173 144.133, 54.080 143.398, 58.500 142.192 C 75.077 137.665, 73.693 138.449, 75.040 132.834 L 76.258 127.758 71.429 123.629 C 68.773 121.358, 65.794 118.825, 64.808 118 C 63.159 116.620, 63.125 116.036, 64.387 110.704 C 66.043 103.708, 67 102.427, 67 107.208 C 67 114.561, 67.943 116.315, 74.680 121.500 L 81.177 126.500 80.588 132.397 C 80.265 135.640, 79.952 140.590, 79.894 143.397 C 79.795 148.134, 79.709 148.303, 78.701 145.750 C 78.103 144.237, 77.308 143, 76.934 143 C 76.561 143, 74.397 145.015, 72.127 147.478 C 68.160 151.782, 68 152.211, 68 158.555 L 68 165.155 71.340 160.828 C 73.846 157.581, 75.271 156.569, 77.046 156.775 C 79.719 157.085, 80.958 158.569, 80.993 161.500 C 81.009 162.835, 83.010 164.784, 87.009 167.360 C 90.304 169.483, 93 171.402, 93 171.624 C 93 171.845, 91.356 171.340, 89.346 170.500 C 87.337 169.661, 85.550 169.116, 85.376 169.291 C 85.201 169.465, 85.608 171.691, 86.279 174.238 C 87.303 178.118, 88.524 179.681, 93.832 183.897 L 100.164 188.927 106.490 183.858 C 111.771 179.626, 113.003 178.043, 113.953 174.273 C 114.578 171.789, 114.914 169.581, 114.699 169.365 C 114.483 169.150, 112.663 169.661, 110.654 170.500 C 108.644 171.340, 107 171.860, 107 171.656 C 107 171.451, 109.649 169.649, 112.887 167.651 C 117.729 164.662, 118.887 163.413, 119.412 160.619 C 120.588 154.349, 125.653 155.237, 130.139 162.500 L 131.993 165.500 131.996 158.458 C 132 151.424, 131.995 151.411, 127.469 146.969 C 123.163 142.744, 122.909 142.634, 122.352 144.761 C 121.302 148.778, 120 147.118, 119.991 141.750 C 119.987 138.863, 119.721 134.250, 119.402 131.500 L 118.821 126.500 125.326 121.628 C 131.942 116.673, 132.962 115.025, 132.986 109.250 C 133.007 104.320, 134.508 105.359, 135.875 111.250 C 137.235 117.116, 138.094 115.676, 128.203 124.109 L 123.970 127.718 125.159 132.867 C 126.282 137.735, 126.570 138.074, 130.424 139.080 C 146.130 143.179, 146.329 143.279, 149.227 148.545 C 152.254 154.046, 152.557 153.280, 151.345 143.193 C 150.729 138.062, 150.548 137.805, 145.890 135.444 C 140.336 132.630, 137.580 129, 140.997 129 C 142.134 129, 144.625 129.652, 146.532 130.449 L 150 131.898 150 127.014 C 150 118.609, 152.636 114.204, 160.813 108.943 L 165.126 106.169 159.176 103.498 C 150.763 99.723, 146.500 95.079, 146.502 89.694 C 146.503 86.913, 147.283 84.405, 148.820 82.250 C 150.094 80.463, 150.768 79.001, 150.318 79.003 C 148.814 79.007, 137.556 86.190, 132.750 90.212 C 128.289 93.945, 128 94.480, 128 99.011 C 128 105.874, 127.437 106.750, 120.924 110.038 C 115.956 112.546, 114.946 113.531, 114.056 116.739 C 113.481 118.808, 113.009 121.100, 113.006 121.833 C 113.003 122.567, 112.662 122.993, 112.250 122.781 C 111.838 122.568, 109.813 121.625, 107.750 120.684 C 103.079 118.553, 102.966 117.660, 107.435 118.182 C 110.846 118.580, 110.874 118.551, 111.518 113.870 C 112.480 106.878, 117.047 98.127, 122.580 92.678 C 128.202 87.140, 134.900 82.875, 147.368 76.892 C 153.925 73.746, 156.025 72.276, 155.661 71.090 C 155.392 70.215, 153.577 65.915, 151.627 61.533 C 149.677 57.151, 147.086 49.433, 145.868 44.381 C 143.741 35.559, 143.720 35.021, 145.339 30.782 C 146.266 28.355, 149.044 23.294, 151.512 19.536 C 153.981 15.778, 156 12.517, 156 12.289 C 156 12.062, 153.775 13.086, 151.055 14.567 C 144.738 18.005, 135.824 25.942, 131.941 31.586 C 129.094 35.724, 128.984 36.228, 130.066 40.240 C 131.471 45.453, 130.608 53.838, 128.076 59.560 C 126.408 63.331, 125.106 64.371, 115.785 69.370 C 106.033 74.601, 105.207 75.287, 103.009 79.981 C 101.716 82.742, 100.398 84.998, 100.079 84.996 C 99.761 84.994, 98.375 82.664, 97 79.818 C 94.647 74.947, 93.889 74.320, 84.136 69.171 C 72.885 63.230, 72.117 62.308, 69.927 52.095 C 69.181 48.615, 69.183 45.459, 69.936 41.387 C 70.950 35.900, 70.871 35.421, 68.331 31.756 C 64.456 26.165, 55.219 17.945, 49.071 14.618 C 46.142 13.033, 43.916 12.133, 44.124 12.618 M 86.635 144.750 C 87.005 146.262, 87.626 147.725, 88.014 148 C 88.403 148.275, 89.492 150.004, 90.434 151.843 C 92.633 156.133, 93.420 155.289, 92.562 149.562 C 92.115 146.581, 91.142 144.512, 89.719 143.515 C 86.607 141.336, 85.871 141.630, 86.635 144.750 M 110.145 143.750 C 108.693 144.973, 107.893 147.155, 107.489 151 L 106.910 156.500 109.092 152.500 C 110.293 150.300, 111.627 148.270, 112.058 147.990 C 113.329 147.162, 114.330 142, 113.219 142 C 112.670 142, 111.287 142.787, 110.145 143.750" stroke="none" fill="#edeef0" fill-rule="evenodd"/><path d="M -0 100.005 L -0 200.010 100.250 199.755 L 200.500 199.500 200.755 99.750 L 201.010 0 100.505 0 L 0 0 -0 100.005 M 0.481 100.500 C 0.481 155.500, 0.602 178.147, 0.750 150.826 C 0.898 123.506, 0.898 78.506, 0.750 50.826 C 0.602 23.147, 0.481 45.500, 0.481 100.500 M 44.124 12.618 C 44.332 13.103, 46.577 16.650, 49.114 20.500 C 56.410 31.572, 56.793 33.324, 54.308 44.259 C 53.153 49.341, 50.374 57.750, 48.133 62.945 C 45.891 68.140, 44.157 72.476, 44.279 72.581 C 44.400 72.686, 49.450 75.246, 55.500 78.270 C 69.236 85.137, 77.703 91.444, 82.301 98.236 C 85.804 103.410, 89 112.180, 89 116.619 C 89 118.638, 89.367 118.815, 92.500 118.306 C 97.053 117.567, 96.951 118.539, 92.250 120.684 C 90.188 121.625, 88.162 122.568, 87.750 122.781 C 87.338 122.993, 87 122.296, 87 121.233 C 87 116.023, 84.798 112.927, 79.017 110.009 C 72.839 106.890, 72.037 105.550, 72.014 98.300 C 72.001 94.553, 71.512 93.689, 67.480 90.300 C 62.585 86.184, 50.894 78.773, 50.274 79.393 C 50.064 79.603, 50.815 81.288, 51.942 83.137 C 56.581 90.746, 52.478 98.268, 40.841 103.491 L 34.659 106.265 37.579 107.749 C 41.529 109.756, 46.832 114.852, 48.715 118.451 C 49.564 120.074, 50.238 123.748, 50.213 126.616 L 50.166 131.829 53.551 130.414 C 55.413 129.636, 57.866 129, 59.003 129 C 62.386 129, 59.759 132.462, 53.997 135.598 C 50.471 137.517, 48.997 138.933, 48.991 140.409 C 48.987 141.559, 48.730 144.975, 48.420 148 L 47.858 153.500 50.679 148.528 C 53.173 144.133, 54.080 143.398, 58.500 142.192 C 75.077 137.665, 73.693 138.449, 75.040 132.834 L 76.258 127.758 71.429 123.629 C 68.773 121.358, 65.794 118.825, 64.808 118 C 63.159 116.620, 63.125 116.036, 64.387 110.704 C 66.043 103.708, 67 102.427, 67 107.208 C 67 114.561, 67.943 116.315, 74.680 121.500 L 81.177 126.500 80.588 132.397 C 80.265 135.640, 79.952 140.590, 79.894 143.397 C 79.795 148.134, 79.709 148.303, 78.701 145.750 C 78.103 144.237, 77.308 143, 76.934 143 C 76.561 143, 74.397 145.015, 72.127 147.478 C 68.160 151.782, 68 152.211, 68 158.555 L 68 165.155 71.340 160.828 C 73.846 157.581, 75.271 156.569, 77.046 156.775 C 79.719 157.085, 80.958 158.569, 80.993 161.500 C 81.009 162.835, 83.010 164.784, 87.009 167.360 C 90.304 169.483, 93 171.402, 93 171.624 C 93 171.845, 91.356 171.340, 89.346 170.500 C 87.337 169.661, 85.550 169.116, 85.376 169.291 C 85.201 169.465, 85.608 171.691, 86.279 174.238 C 87.303 178.118, 88.524 179.681, 93.832 183.897 L 100.164 188.927 106.490 183.858 C 111.771 179.626, 113.003 178.043, 113.953 174.273 C 114.578 171.789, 114.914 169.581, 114.699 169.365 C 114.483 169.150, 112.663 169.661, 110.654 170.500 C 108.644 171.340, 107 171.860, 107 171.656 C 107 171.451, 109.649 169.649, 112.887 167.651 C 117.729 164.662, 118.887 163.413, 119.412 160.619 C 120.588 154.349, 125.653 155.237, 130.139 162.500 L 131.993 165.500 131.996 158.458 C 132 151.424, 131.995 151.411, 127.469 146.969 C 123.163 142.744, 122.909 142.634, 122.352 144.761 C 121.302 148.778, 120 147.118, 119.991 141.750 C 119.987 138.863, 119.721 134.250, 119.402 131.500 L 118.821 126.500 125.326 121.628 C 131.942 116.673, 132.962 115.025, 132.986 109.250 C 133.007 104.320, 134.508 105.359, 135.875 111.250 C 137.235 117.116, 138.094 115.676, 128.203 124.109 L 123.970 127.718 125.159 132.867 C 126.282 137.735, 126.570 138.074, 130.424 139.080 C 146.130 143.179, 146.329 143.279, 149.227 148.545 C 152.254 154.046, 152.557 153.280, 151.345 143.193 C 150.729 138.062, 150.548 137.805, 145.890 135.444 C 140.336 132.630, 137.580 129, 140.997 129 C 142.134 129, 144.625 129.652, 146.532 130.449 L 150 131.898 150 127.014 C 150 118.609, 152.636 114.204, 160.813 108.943 L 165.126 106.169 159.176 103.498 C 150.763 99.723, 146.500 95.079, 146.502 89.694 C 146.503 86.913, 147.283 84.405, 148.820 82.250 C 150.094 80.463, 150.768 79.001, 150.318 79.003 C 148.814 79.007, 137.556 86.190, 132.750 90.212 C 128.289 93.945, 128 94.480, 128 99.011 C 128 105.874, 127.437 106.750, 120.924 110.038 C 115.956 112.546, 114.946 113.531, 114.056 116.739 C 113.481 118.808, 113.009 121.100, 113.006 121.833 C 113.003 122.567, 112.662 122.993, 112.250 122.781 C 111.838 122.568, 109.813 121.625, 107.750 120.684 C 103.079 118.553, 102.966 117.660, 107.435 118.182 C 110.846 118.580, 110.874 118.551, 111.518 113.870 C 112.480 106.878, 117.047 98.127, 122.580 92.678 C 128.202 87.140, 134.900 82.875, 147.368 76.892 C 153.925 73.746, 156.025 72.276, 155.661 71.090 C 155.392 70.215, 153.577 65.915, 151.627 61.533 C 149.677 57.151, 147.086 49.433, 145.868 44.381 C 143.741 35.559, 143.720 35.021, 145.339 30.782 C 146.266 28.355, 149.044 23.294, 151.512 19.536 C 153.981 15.778, 156 12.517, 156 12.289 C 156 12.062, 153.775 13.086, 151.055 14.567 C 144.738 18.005, 135.824 25.942, 131.941 31.586 C 129.094 35.724, 128.984 36.228, 130.066 40.240 C 131.471 45.453, 130.608 53.838, 128.076 59.560 C 126.408 63.331, 125.106 64.371, 115.785 69.370 C 106.033 74.601, 105.207 75.287, 103.009 79.981 C 101.716 82.742, 100.398 84.998, 100.079 84.996 C 99.761 84.994, 98.375 82.664, 97 79.818 C 94.647 74.947, 93.889 74.320, 84.136 69.171 C 72.885 63.230, 72.117 62.308, 69.927 52.095 C 69.181 48.615, 69.183 45.459, 69.936 41.387 C 70.950 35.900, 70.871 35.421, 68.331 31.756 C 64.456 26.165, 55.219 17.945, 49.071 14.618 C 46.142 13.033, 43.916 12.133, 44.124 12.618 M 86.635 144.750 C 87.005 146.262, 87.626 147.725, 88.014 148 C 88.403 148.275, 89.492 150.004, 90.434 151.843 C 92.633 156.133, 93.420 155.289, 92.562 149.562 C 92.115 146.581, 91.142 144.512, 89.719 143.515 C 86.607 141.336, 85.871 141.630, 86.635 144.750 M 110.145 143.750 C 108.693 144.973, 107.893 147.155, 107.489 151 L 106.910 156.500 109.092 152.500 C 110.293 150.300, 111.627 148.270, 112.058 147.990 C 113.329 147.162, 114.330 142, 113.219 142 C 112.670 142, 111.287 142.787, 110.145 143.750" stroke="none" fill="#052b72" fill-rule="evenodd"/></svg>