<svg xmlns="http://www.w3.org/2000/svg" width="200" height="200" viewBox="0 0 200 200" version="1.1"><path d="M 44 12.435 C 44 12.743, 45.522 15.134, 47.383 17.748 C 52.088 24.358, 56 32.440, 56 35.550 C 56 40.165, 52.033 53.891, 47.987 63.277 C 45.826 68.290, 44.157 72.476, 44.279 72.581 C 44.400 72.686, 49.450 75.246, 55.500 78.270 C 69.236 85.137, 77.703 91.444, 82.301 98.236 C 85.804 103.410, 89 112.180, 89 116.619 C 89 118.638, 89.367 118.815, 92.500 118.306 C 97.053 117.567, 96.951 118.539, 92.250 120.684 C 90.188 121.625, 88.162 122.568, 87.750 122.781 C 87.338 122.993, 87 122.296, 87 121.233 C 87 116.023, 84.798 112.927, 79.017 110.009 C 72.839 106.890, 72.037 105.550, 72.014 98.300 C 72.001 94.553, 71.512 93.689, 67.480 90.300 C 62.882 86.434, 51.283 79, 49.849 79 C 49.415 79, 50.172 80.638, 51.530 82.640 C 56.784 90.381, 52.819 98.116, 40.841 103.491 L 34.659 106.265 37.579 107.749 C 41.483 109.732, 46.825 114.839, 48.657 118.338 C 49.474 119.900, 50.143 123.576, 50.143 126.508 L 50.143 131.838 53.539 130.419 C 55.407 129.639, 57.866 129, 59.003 129 C 62.386 129, 59.759 132.462, 53.997 135.598 C 50.471 137.517, 48.997 138.933, 48.991 140.409 C 48.987 141.559, 48.730 144.975, 48.420 148 L 47.858 153.500 50.679 148.528 C 53.173 144.133, 54.080 143.398, 58.500 142.192 C 75.077 137.665, 73.693 138.449, 75.040 132.834 L 76.258 127.758 71.429 123.629 C 68.773 121.358, 65.794 118.825, 64.808 118 C 63.159 116.620, 63.125 116.036, 64.387 110.704 C 66.043 103.708, 67 102.427, 67 107.208 C 67 114.563, 67.942 116.315, 74.683 121.500 L 81.184 126.500 80.599 133 C 80.277 136.575, 79.963 141.525, 79.901 144 C 79.792 148.299, 79.739 148.377, 78.701 145.750 C 78.103 144.237, 77.308 143, 76.934 143 C 76.561 143, 74.397 145.015, 72.127 147.478 C 68.151 151.792, 68 152.199, 68 158.628 L 68 165.300 70.934 161.250 C 74.649 156.122, 75.264 155.770, 78.416 156.968 C 80.334 157.697, 81.002 158.666, 81.009 160.725 C 81.016 163.016, 82.062 164.173, 87.009 167.360 C 90.304 169.483, 93 171.402, 93 171.624 C 93 171.845, 91.356 171.340, 89.346 170.500 C 87.337 169.661, 85.550 169.116, 85.376 169.291 C 85.201 169.465, 85.608 171.664, 86.279 174.178 C 87.278 177.915, 88.637 179.686, 93.746 183.906 L 99.991 189.066 106.404 183.927 C 111.771 179.626, 113.001 178.053, 113.953 174.273 C 114.578 171.789, 114.914 169.581, 114.699 169.365 C 114.483 169.150, 112.663 169.661, 110.654 170.500 C 108.644 171.340, 107 171.860, 107 171.656 C 107 171.451, 109.700 169.618, 113 167.581 C 117.357 164.891, 119.004 163.278, 119.015 161.689 C 119.035 158.834, 120.027 157.417, 122.557 156.629 C 124.659 155.974, 128.394 159.074, 130.836 163.500 C 131.727 165.115, 131.945 164.145, 131.970 158.458 C 132 151.428, 131.993 151.409, 127.540 147.039 L 123.079 142.661 122.012 145.469 C 121.424 147.014, 120.794 148.102, 120.611 147.889 C 120.428 147.675, 120 142.739, 119.659 136.921 L 119.040 126.342 125.448 121.501 C 132.242 116.369, 132.965 115.083, 132.986 108.083 C 133.004 102.532, 133.725 103.219, 135.659 110.627 C 137.374 117.195, 138.321 115.483, 128.203 124.109 L 123.970 127.718 125.159 132.867 C 126.282 137.735, 126.570 138.074, 130.424 139.080 C 146.130 143.179, 146.329 143.279, 149.227 148.545 C 152.254 154.046, 152.557 153.280, 151.345 143.193 C 150.729 138.062, 150.548 137.805, 145.890 135.444 C 140.336 132.630, 137.580 129, 140.997 129 C 142.134 129, 144.625 129.652, 146.532 130.449 L 150 131.898 150 127.014 C 150 118.609, 152.636 114.204, 160.813 108.943 L 165.126 106.169 159.176 103.498 C 150.763 99.723, 146.500 95.079, 146.502 89.694 C 146.503 86.913, 147.283 84.405, 148.820 82.250 C 150.094 80.463, 150.768 79.001, 150.318 79.003 C 148.814 79.007, 137.556 86.190, 132.750 90.212 C 128.289 93.945, 128 94.480, 128 99.011 C 128 105.874, 127.437 106.750, 120.924 110.038 C 115.956 112.546, 114.946 113.531, 114.056 116.739 C 113.481 118.808, 113.009 121.040, 113.006 121.701 C 113.002 122.538, 111.783 122.357, 108.988 121.106 C 103.427 118.616, 102.856 117.688, 107.185 118.172 L 110.870 118.583 111.518 113.870 C 112.469 106.956, 117.073 98.170, 122.625 92.676 C 128.217 87.143, 134.908 82.871, 147.294 76.928 C 152.082 74.631, 156 72.403, 156 71.979 C 156 71.555, 154.428 67.898, 152.508 63.853 C 150.587 59.809, 147.796 51.740, 146.306 45.922 C 143.644 35.532, 143.627 35.265, 145.325 30.818 C 146.276 28.329, 149.067 23.290, 151.527 19.622 C 153.987 15.954, 156 12.701, 156 12.394 C 156 11.397, 146 17.577, 141.424 21.401 C 138.975 23.448, 135.151 27.534, 132.926 30.482 C 128.957 35.738, 128.902 35.923, 130.047 40.170 C 131.471 45.454, 130.623 53.804, 128.076 59.560 C 126.408 63.331, 125.106 64.371, 115.785 69.370 C 106.033 74.601, 105.207 75.287, 103.009 79.981 C 101.716 82.742, 100.371 85, 100.020 85 C 99.669 85, 98.284 82.674, 96.941 79.831 C 94.636 74.951, 93.922 74.357, 84.136 69.181 C 72.886 63.230, 72.117 62.305, 69.927 52.095 C 69.181 48.615, 69.183 45.459, 69.936 41.387 C 70.953 35.888, 70.875 35.427, 68.293 31.701 C 64.571 26.330, 55.057 17.893, 49.013 14.604 C 46.256 13.103, 44 12.127, 44 12.435 M 86.514 144.102 C 86.919 145.971, 87.584 147.725, 87.991 148 C 88.398 148.275, 89.723 150.456, 90.935 152.847 C 92.148 155.238, 93.288 157.038, 93.470 156.847 C 93.651 156.656, 93.350 153.911, 92.800 150.747 C 91.990 146.085, 91.229 144.587, 88.788 142.849 L 85.776 140.704 86.514 144.102 M 110.783 143.255 C 108.625 145.038, 107.946 146.633, 107.488 151 L 106.910 156.500 109.092 152.500 C 110.293 150.300, 111.656 148.253, 112.122 147.950 C 112.969 147.401, 114.585 140.996, 113.875 141.005 C 113.669 141.008, 112.277 142.020, 110.783 143.255" stroke="none" fill="#eff2f3" fill-rule="evenodd"/><path d="M -0 100.005 L -0 200.010 100.250 199.755 L 200.500 199.500 200.755 99.750 L 201.010 0 100.505 0 L 0 0 -0 100.005 M 0.481 100.500 C 0.481 155.500, 0.602 178.147, 0.750 150.826 C 0.898 123.506, 0.898 78.506, 0.750 50.826 C 0.602 23.147, 0.481 45.500, 0.481 100.500 M 44 12.435 C 44 12.743, 45.522 15.134, 47.383 17.748 C 52.088 24.358, 56 32.440, 56 35.550 C 56 40.165, 52.033 53.891, 47.987 63.277 C 45.826 68.290, 44.157 72.476, 44.279 72.581 C 44.400 72.686, 49.450 75.246, 55.500 78.270 C 69.236 85.137, 77.703 91.444, 82.301 98.236 C 85.804 103.410, 89 112.180, 89 116.619 C 89 118.638, 89.367 118.815, 92.500 118.306 C 97.053 117.567, 96.951 118.539, 92.250 120.684 C 90.188 121.625, 88.162 122.568, 87.750 122.781 C 87.338 122.993, 87 122.296, 87 121.233 C 87 116.023, 84.798 112.927, 79.017 110.009 C 72.839 106.890, 72.037 105.550, 72.014 98.300 C 72.001 94.553, 71.512 93.689, 67.480 90.300 C 62.882 86.434, 51.283 79, 49.849 79 C 49.415 79, 50.172 80.638, 51.530 82.640 C 56.784 90.381, 52.819 98.116, 40.841 103.491 L 34.659 106.265 37.579 107.749 C 41.483 109.732, 46.825 114.839, 48.657 118.338 C 49.474 119.900, 50.143 123.576, 50.143 126.508 L 50.143 131.838 53.539 130.419 C 55.407 129.639, 57.866 129, 59.003 129 C 62.386 129, 59.759 132.462, 53.997 135.598 C 50.471 137.517, 48.997 138.933, 48.991 140.409 C 48.987 141.559, 48.730 144.975, 48.420 148 L 47.858 153.500 50.679 148.528 C 53.173 144.133, 54.080 143.398, 58.500 142.192 C 75.077 137.665, 73.693 138.449, 75.040 132.834 L 76.258 127.758 71.429 123.629 C 68.773 121.358, 65.794 118.825, 64.808 118 C 63.159 116.620, 63.125 116.036, 64.387 110.704 C 66.043 103.708, 67 102.427, 67 107.208 C 67 114.563, 67.942 116.315, 74.683 121.500 L 81.184 126.500 80.599 133 C 80.277 136.575, 79.963 141.525, 79.901 144 C 79.792 148.299, 79.739 148.377, 78.701 145.750 C 78.103 144.237, 77.308 143, 76.934 143 C 76.561 143, 74.397 145.015, 72.127 147.478 C 68.151 151.792, 68 152.199, 68 158.628 L 68 165.300 70.934 161.250 C 74.649 156.122, 75.264 155.770, 78.416 156.968 C 80.334 157.697, 81.002 158.666, 81.009 160.725 C 81.016 163.016, 82.062 164.173, 87.009 167.360 C 90.304 169.483, 93 171.402, 93 171.624 C 93 171.845, 91.356 171.340, 89.346 170.500 C 87.337 169.661, 85.550 169.116, 85.376 169.291 C 85.201 169.465, 85.608 171.664, 86.279 174.178 C 87.278 177.915, 88.637 179.686, 93.746 183.906 L 99.991 189.066 106.404 183.927 C 111.771 179.626, 113.001 178.053, 113.953 174.273 C 114.578 171.789, 114.914 169.581, 114.699 169.365 C 114.483 169.150, 112.663 169.661, 110.654 170.500 C 108.644 171.340, 107 171.860, 107 171.656 C 107 171.451, 109.700 169.618, 113 167.581 C 117.357 164.891, 119.004 163.278, 119.015 161.689 C 119.035 158.834, 120.027 157.417, 122.557 156.629 C 124.659 155.974, 128.394 159.074, 130.836 163.500 C 131.727 165.115, 131.945 164.145, 131.970 158.458 C 132 151.428, 131.993 151.409, 127.540 147.039 L 123.079 142.661 122.012 145.469 C 121.424 147.014, 120.794 148.102, 120.611 147.889 C 120.428 147.675, 120 142.739, 119.659 136.921 L 119.040 126.342 125.448 121.501 C 132.242 116.369, 132.965 115.083, 132.986 108.083 C 133.004 102.532, 133.725 103.219, 135.659 110.627 C 137.374 117.195, 138.321 115.483, 128.203 124.109 L 123.970 127.718 125.159 132.867 C 126.282 137.735, 126.570 138.074, 130.424 139.080 C 146.130 143.179, 146.329 143.279, 149.227 148.545 C 152.254 154.046, 152.557 153.280, 151.345 143.193 C 150.729 138.062, 150.548 137.805, 145.890 135.444 C 140.336 132.630, 137.580 129, 140.997 129 C 142.134 129, 144.625 129.652, 146.532 130.449 L 150 131.898 150 127.014 C 150 118.609, 152.636 114.204, 160.813 108.943 L 165.126 106.169 159.176 103.498 C 150.763 99.723, 146.500 95.079, 146.502 89.694 C 146.503 86.913, 147.283 84.405, 148.820 82.250 C 150.094 80.463, 150.768 79.001, 150.318 79.003 C 148.814 79.007, 137.556 86.190, 132.750 90.212 C 128.289 93.945, 128 94.480, 128 99.011 C 128 105.874, 127.437 106.750, 120.924 110.038 C 115.956 112.546, 114.946 113.531, 114.056 116.739 C 113.481 118.808, 113.009 121.040, 113.006 121.701 C 113.002 122.538, 111.783 122.357, 108.988 121.106 C 103.427 118.616, 102.856 117.688, 107.185 118.172 L 110.870 118.583 111.518 113.870 C 112.469 106.956, 117.073 98.170, 122.625 92.676 C 128.217 87.143, 134.908 82.871, 147.294 76.928 C 152.082 74.631, 156 72.403, 156 71.979 C 156 71.555, 154.428 67.898, 152.508 63.853 C 150.587 59.809, 147.796 51.740, 146.306 45.922 C 143.644 35.532, 143.627 35.265, 145.325 30.818 C 146.276 28.329, 149.067 23.290, 151.527 19.622 C 153.987 15.954, 156 12.701, 156 12.394 C 156 11.397, 146 17.577, 141.424 21.401 C 138.975 23.448, 135.151 27.534, 132.926 30.482 C 128.957 35.738, 128.902 35.923, 130.047 40.170 C 131.471 45.454, 130.623 53.804, 128.076 59.560 C 126.408 63.331, 125.106 64.371, 115.785 69.370 C 106.033 74.601, 105.207 75.287, 103.009 79.981 C 101.716 82.742, 100.371 85, 100.020 85 C 99.669 85, 98.284 82.674, 96.941 79.831 C 94.636 74.951, 93.922 74.357, 84.136 69.181 C 72.886 63.230, 72.117 62.305, 69.927 52.095 C 69.181 48.615, 69.183 45.459, 69.936 41.387 C 70.953 35.888, 70.875 35.427, 68.293 31.701 C 64.571 26.330, 55.057 17.893, 49.013 14.604 C 46.256 13.103, 44 12.127, 44 12.435 M 86.514 144.102 C 86.919 145.971, 87.584 147.725, 87.991 148 C 88.398 148.275, 89.723 150.456, 90.935 152.847 C 92.148 155.238, 93.288 157.038, 93.470 156.847 C 93.651 156.656, 93.350 153.911, 92.800 150.747 C 91.990 146.085, 91.229 144.587, 88.788 142.849 L 85.776 140.704 86.514 144.102 M 110.783 143.255 C 108.625 145.038, 107.946 146.633, 107.488 151 L 106.910 156.500 109.092 152.500 C 110.293 150.300, 111.656 148.253, 112.122 147.950 C 112.969 147.401, 114.585 140.996, 113.875 141.005 C 113.669 141.008, 112.277 142.020, 110.783 143.255" stroke="none" fill="#0589f0" fill-rule="evenodd"/></svg>